<?xml version="1.0" encoding="UTF-8"?>
<svg id="Layer_1" data-name="Layer 1" xmlns="http://www.w3.org/2000/svg" xmlns:xlink="http://www.w3.org/1999/xlink" viewBox="0 0 136 18">
  <defs>
    <style>
      .cls-1 {
        mask: url(#mask);
      }

      .cls-2 {
        fill: #ebebeb;
      }

      .cls-3 {
        mask: url(#mask-1);
      }

      .cls-4 {
        fill: #fff;
      }
    </style>
    <mask id="mask" x="0" y="0" width="135.47" height="18" maskUnits="userSpaceOnUse">
      <g id="mask0_7744_2559" data-name="mask0 7744 2559">
        <path class="cls-4" d="M135.47,0H0v18h135.47V0Z"/>
      </g>
    </mask>
    <mask id="mask-1" x="0" y="0" width="135.47" height="18" maskUnits="userSpaceOnUse">
      <g id="mask1_7744_2559" data-name="mask1 7744 2559">
        <path class="cls-4" d="M135.47,0H0v18h135.47V0Z"/>
      </g>
    </mask>
  </defs>
  <g class="cls-1">
    <g>
      <path class="cls-2" d="M7.23.51L0,17.74h11.55l-1.41-3.93h-3.55l2.98-7.51,4.53,11.44h5.38L12.29.51h-5.07Z"/>
      <g class="cls-3">
        <g>
          <path class="cls-2" d="M26.1,18c-4.04,0-7.46-2.29-7.46-6.84s3.32-7.07,6.76-7.07c.54,0,1.08.05,1.65.18V0h4.47v16.97c-1.03.46-3.21,1.03-5.43,1.03M26,14.3c.39,0,.75-.05,1.05-.15v-6.25c-.31-.13-.67-.21-1.08-.21-1.49,0-2.85,1.11-2.85,3.39s1.39,3.21,2.88,3.21"/>
          <path class="cls-2" d="M39.5,17.98c-3.75,0-6.89-2.52-6.89-6.94s3.14-6.94,6.89-6.94,6.92,2.52,6.92,6.94-3.16,6.94-6.92,6.94ZM39.5,14.25c1.31,0,2.47-1.03,2.47-3.21s-1.16-3.21-2.47-3.21-2.44,1.03-2.44,3.21,1.13,3.21,2.44,3.21Z"/>
          <path class="cls-2" d="M52.84,18c-1.75,0-3.96-.36-5.35-1V0h4.47v4.24c.57-.1,1.13-.18,1.67-.18,3.52,0,6.76,2.31,6.76,6.79,0,4.73-3.47,7.15-7.56,7.15M51.97,7.92v6.22c.28.1.62.15,1,.15,1.52,0,2.96-1.08,2.96-3.39,0-2.16-1.39-3.19-2.88-3.19-.41,0-.75.08-1.08.21"/>
          <path class="cls-2" d="M61.43,11.01c0-4.29,3.01-6.92,6.61-6.92,3.37,0,6.45,2.16,6.45,6.51,0,.59-.03,1.16-.1,1.72h-8.41c.49,1.52,1.83,2.24,3.5,2.24,1.36,0,2.62-.33,4.04-.95v3.42c-1.31.67-2.88.95-4.5.95-4.27,0-7.59-2.57-7.59-6.97M65.93,9.51h4.37c-.23-1.47-1.21-2.06-2.21-2.06s-1.83.62-2.16,2.06"/>
          <path class="cls-2" d="M82.13.51h6.17l1.85,8.61.39,2.21.39-2.21,1.88-8.61h6.17l2.26,17.23h-4.76l-.9-8.74-.26-2.88-.62,2.88-2.08,8.74h-4.4l-2.06-8.77-.62-2.8-.23,2.8-.93,8.77h-4.55l2.29-17.23Z"/>
          <path class="cls-2" d="M107.08.51h5.71l6.33,17.23h-5.27l-1.16-3.39h-6.02l-1.16,3.39h-4.81L107.08.51h0ZM111.47,10.83l-1.77-5.27-1.83,5.27h3.6Z"/>
          <path class="cls-2" d="M123.36,9.05l-5.48-8.54h5.79l2.96,4.99,2.96-4.99h5.32l-5.25,8.2,5.81,9.03h-5.76l-3.32-5.45-3.29,5.45h-5.35l5.61-8.69Z"/>
        </g>
      </g>
    </g>
  </g>
</svg>