<?xml version="1.0" encoding="UTF-8"?>
<svg id="Layer_1" data-name="Layer 1" xmlns="http://www.w3.org/2000/svg" viewBox="0 0 181 70">
  <defs>
    <style>
      .cls-1 {
        fill: #fff;
      }
    </style>
  </defs>
  <path class="cls-1" d="M174.63,19.56c-.7-3.72-1.59-6.93-3.48-10.03-.8-1.32-1.95-1.77-3.89-1.85-28.21-2.92-55.2-2.08-77.55,1.91l-7.68,1.32c-21.37,3.83-46.87,12.54-73.07,25.07-1.08.49-2.2,1.48-2.55,3.48-.72,3.98-.58,7.59-.05,10.66.55,3.15,1.96,6.47,3.66,10.09,1.28,1.95,2.67,2.03,5.29,2.32,28.66,2.81,54.01,2.09,75.41-1.73l7.65-1.43c22.37-3.99,47.84-12.56,73.23-25,2.35-1.28,2.8-1.64,3.21-3.78h-.01c.72-3.75.5-6.92-.09-10.65l-.07-.36ZM20.55,56.94l-1.59.29c-1.47.26-2.62-.02-3.35-1.14-1.5-2.35-2.38-4.8-2.8-7.24-.42-2.39-.42-5.01.19-7.74.31-1.3,1.29-1.98,2.76-2.25l1.59-.29c1.47-.26,1.97.26,1.76,1.44v.03c-1.16,5.03-.63,9.95,2.62,14.95.58,1.02.29,1.69-1.18,1.95ZM52.59,56.9c-.53,0-1.94-.2-3.62-.56-3.73-.82-17.51-3.63-25.18-5.16-.51-.11-.83-.15-1.37-.46-.7-.5-1.28-2.6-1.38-3.2-.09-.5-.4-2.31.09-3.49.24-.58.66-.86,1.22-1.17,6.7-4.11,18.69-11.52,21.93-13.57,1.46-.94,2.73-1.6,3.21-1.81,1.44-.56,1.96-.05,2.25,1.64l.22,1.35c.06.36.05.75-.09,1.01-.15.26-.58.6-1.07.94h-.02c-3.7,2.38-18.84,11.6-22.78,14.06v.07c4.54.93,21.88,4.29,26.17,5.27.57.15,1.1.32,1.33.52.23.2.36.56.42.92l.25,1.34c.3,1.7-.02,2.36-1.56,2.31ZM87.85,54.97c-3.09.43-5.48.71-9.11.9-3.58.16-5.53.08-9.02.08-.65,0-2.04-.04-2.82-.14-2.1-.27-3.16-.41-4.49-.8-1.22-.35-2.54-.79-3.41-1.51-1.98-1.63-2.47-2.75-2.91-5.3l-2.38-13.66c-.44-2.52-.36-3.76.95-5.98.57-1,1.67-1.85,2.69-2.62,1.12-.82,2.07-1.32,3.96-2.29.69-.37,1.99-.88,2.6-1.12,3.28-1.21,5.07-1.96,8.5-3.04,3.47-1.1,5.81-1.66,8.86-2.32,1.21-.34,2.1.26,2.35,1.68.04.23.18,1.1.23,1.34h.01c.24,1.38-.25,2.08-1.46,2.39-3.2.82-5.88,1.29-8.95,2.16-3.02.87-5.33,1.54-8.93,2.64-1.8.55-3.32,1.36-4.42,2.29-1.11.94-1.5,2.26-1.33,3.23l2.63,15.1c.16.98.97,2.08,2.34,2.58,1.35.5,3.06.73,4.93.63,3.75-.21,6.15-.39,9.28-.63,3.17-.23,5.84-.71,9.13-1.06,1.24-.13,1.94.36,2.17,1.73.03.23.19,1.09.24,1.33.25,1.43-.39,2.29-1.63,2.4ZM78.44,40.11h-.01c-2.04.27-13.34,1.97-14.1,2.06-1.01.12-1.44.09-1.63-.29-.16-.31-.31-1.02-.47-1.92-.15-.86-.24-1.58-.19-1.9.06-.42.1-.68,1.42-1,.72-.19,11.93-2.55,13.94-3.02,1.24-.23,1.85.42,2.23,1.84l.29,1.7c.13,1.48-.23,2.29-1.47,2.51ZM123.95,43.97c-2.91,1.51-6.06,2.84-9.04,3.99-2.96,1.16-4.94,1.85-7.94,2.88-.58.23-2.33.83-3.06.96-1.35.24-2.6.33-3.77.16-1.17-.16-2.27-.59-3.26-1.16-1.99-1.26-3.36-3.27-3.85-6.04l-3.45-19.85c-.49-2.77.13-5.12,1.58-7,.72-.89,1.61-1.68,2.66-2.24,1.05-.56,2.25-.9,3.6-1.14.75-.13,2.59-.18,3.21-.15,3.17-.08,5.27-.11,8.44-.05,3.2.03,6.6.2,9.84.61h-.02c1.29.16,1.61.96,1.8,2.05l.11.6c.22,1.21-.2,1.78-1.46,1.74-3.06-.08-11.02-.07-18.55.42-1.87.12-3.45.52-4.61,1.29-1.15.79-1.59,1.67-1.4,2.98.3,2.08,2.97,17.64,3.4,19.68.27,1.32.97,1.97,2.31,2.32,1.35.33,2.96.15,4.77-.39,7.25-2.15,14.74-4.82,17.6-5.95,1.19-.47,1.76-.08,1.97,1.13l.11.6c.2,1.09.16,1.95-.99,2.53ZM114.94,33.2c-1.94.35-9.41,1.96-14.16,3.02,0,0-.77.15-1.09-.41-.38-.66-.56-1.55-.67-2.18-.12-.73-.32-1.9-.24-2.48.09-.75,1.01-.83,1.01-.83,4.81-.68,12.36-1.77,14.29-2.11,1.23-.22,1.84.42,2.22,1.71l.16.91c.08,1.34-.28,2.15-1.52,2.37ZM160.51,29.39c-.17.76-1.16.35-1.64.12h.01c-3.2-1.37-7.54-3.21-10.82-4.38-5.02-1.83-9.99-3.54-15-5.23.69,3.23,1.24,6.38,1.81,9.64.42,3.17.86,6.45,1.19,9.76.06,1.12-.57,1.85-1.8,2.08-.5.09-.99.18-1.49.27-1.22.23-1.81-.29-2-1.38-.67-3.86-1.16-7.76-1.81-11.51-.67-3.88-1.54-7.7-2.21-11.57l-.17-.98c-.07-.36,0-.68.13-1.01.14-.34.33-.57.68-.87.28-.24.63-.35.81-.39.25-.05.37-.08.62-.12.74-.14,1.51-.03,2.58.27.27.08,11.21,3.8,16.32,5.48,4.08,1.34,7.73,2.55,11.6,3.94.36.11.83.3.96.66.22.48.28,1.98.3,2.92.03.93.07,1.51-.08,2.29ZM168.85,27.6c-.14,1.27-.49,2.29-1.28,2.93-.68.49-1.67.72-2.91.93-.57.1-.83.13-1.27-.16-.17-.21-.2-.48-.14-.77.07-2.23,0-4.96-.37-7.68-.09-.72-.2-1.36-.35-2.02-.44-2.2-1.12-4.32-2.15-6.06-.56-1.01-.16-1.72,1.06-1.94l1.59-.29h.02c1.36-.24,2.42.07,3.02,1.22,1.14,2.16,2.08,4.05,2.56,6.85.51,2.93.42,4.58.21,6.98Z"/>
  <path class="cls-1" d="M179.97,19.29l-.07-.45c-.82-4.32-2.09-7.88-4.09-11.61-1.62-2.88-4.09-4.68-6.98-5.08C140.39-.61,111.2.12,88.64,4.16c.02,0-7.54,1.29-7.54,1.29-21.63,3.87-48.93,13.28-74.93,25.82l-.08.04-.26.14c-2.53,1.34-4.27,3.87-4.8,7.12-.69,4.59-.71,8.76-.08,12.41.65,3.72,2.08,7.64,4.25,11.68,1.62,2.89,4.1,4.68,6.99,5.08,28.87,2.83,57.78,2.21,79.42-1.66l7.56-1.4c22.54-4.02,50.17-13.43,75.75-25.79,2.85-1.49,4.57-3.99,5.1-7.29.66-4.21.64-8-.05-12.31ZM177.26,31.12c-.39,2.36-1.57,4.11-3.51,5.13-25.35,12.25-52.71,21.56-75.03,25.55,0,0-7.53,1.39-7.54,1.39-21.4,3.82-49.99,4.42-78.55,1.62-1.98-.26-3.69-1.52-4.83-3.57-2.02-3.76-3.35-7.39-3.95-10.79-.58-3.34-.55-7.17.09-11.43.39-2.36,1.56-4.1,3.35-5.04l.16-.11h.03c25.78-12.43,52.8-21.77,74.15-25.58l7.56-1.3c22.32-3.98,51.2-4.7,79.32-1.98,1.98.27,3.7,1.54,4.85,3.6v.02c1.86,3.44,3.03,6.74,3.78,10.71l.08.41c.64,3.99.65,7.5.05,11.38Z"/>
</svg>